Coordinates
version=1
nRows=14
nColumns=38
inDegrees=no

Units are S.I. units (second, meters, Newtons, ...)
If the header above contains a line with 'inDegrees', this indicates whether rotational values are in degrees (yes) or radians (no).

endheader
time	pelvis_tilt	pelvis_list	pelvis_rotation	pelvis_tx	pelvis_ty	pelvis_tz	hip_flexion_r	hip_adduction_r	hip_rotation_r	knee_angle_r	ankle_angle_r	subtalar_angle_r	mtp_angle_r	hip_flexion_l	hip_adduction_l	hip_rotation_l	knee_angle_l	ankle_angle_l	subtalar_angle_l	mtp_angle_l	lumbar_extension	lumbar_bending	lumbar_rotation	arm_flex_r	arm_add_r	arm_rot_r	elbow_flex_r	pro_sup_r	wrist_flex_r	wrist_dev_r	arm_flex_l	arm_add_l	arm_rot_l	elbow_flex_l	pro_sup_l	wrist_flex_l	wrist_dev_l
1.19	-0.0972071	1.31836	-1.48357	0.83192	0.456686	0.952444	-0.489978	0.104737	-0.135301	0	-0.322803	0	0	0.154728	-0.134082	-0.382688	0.67117	-0.140081	0	0	-0.412337	0.00716709	-0.0962024	0.225035	-0.470296	1.29865	0.71749	0.167427	0	0	-0.362416	-0.341581	0.0250079	1.00808	1.56325	0	0
1.2	-0.10171	1.32242	-1.47538	0.832	0.446198	0.950412	-0.497756	0.107106	-0.136306	0	-0.312974	0	0	0.15447	-0.122638	-0.393546	0.596054	-0.146978	0	0	-0.409369	0.00738779	-0.0968304	0.221154	-0.466777	1.28856	0.713466	0.172138	0	0	-0.363689	-0.340255	0.024753	1.00592	1.56711	0	0
1.21	-0.110626	1.32851	-1.46177	0.832315	0.435576	0.948069	-0.502832	0.110554	-0.138129	0	-0.303781	0	0	0.155368	-0.110951	-0.398597	0.519708	-0.15472	0	0	-0.403903	0.00904784	-0.0984486	0.217075	-0.463789	1.27899	0.709656	0.176768	0	0	-0.364761	-0.338114	0.0239791	1.00277	1.56978	0	0
1.22	-0.124055	1.33555	-1.44308	0.832846	0.42482	0.945496	-0.506338	0.114717	-0.140802	0	-0.296523	0	0	0.156588	-0.0996306	-0.398549	0.445525	-0.161358	0	0	-0.396832	0.0119798	-0.100546	0.213469	-0.461824	1.27187	0.706423	0.17943	0	0	-0.365912	-0.335989	0.0241589	0.999114	1.5708	0	0
1.23	-0.140235	1.34315	-1.42118	0.833552	0.413918	0.942797	-0.508388	0.119176	-0.144378	0	-0.288872	0	0	0.157961	-0.0885071	-0.394615	0.376468	-0.165452	0	0	-0.388558	0.0154109	-0.102765	0.209482	-0.459909	1.26523	0.702318	0.182388	0	0	-0.36685	-0.335147	0.027252	0.994986	1.5708	0	0
1.24	-0.159004	1.35013	-1.39787	0.83429	0.402972	0.940156	-0.509782	0.123185	-0.147432	0	-0.28236	0	0	0.157973	-0.0781311	-0.388772	0.313527	-0.164829	0	0	-0.381062	0.0192021	-0.104297	0.20648	-0.458817	1.26052	0.698717	0.184916	0	0	-0.367416	-0.333329	0.0288206	0.991207	1.5708	0	0
1.25	-0.176869	1.35579	-1.37579	0.835077	0.391855	0.937725	-0.511963	0.126427	-0.149062	0	-0.27637	0	0	0.15529	-0.0678799	-0.37953	0.255114	-0.163641	0	0	-0.374931	0.022798	-0.105999	0.2035	-0.457674	1.25611	0.694827	0.186957	0	0	-0.36777	-0.330888	0.0289594	0.987562	1.5708	0	0
1.26	-0.192101	1.35979	-1.35667	0.835732	0.38059	0.935562	-0.515509	0.12905	-0.149557	0	-0.271866	0	0	0.149521	-0.0589243	-0.365096	0.202046	-0.164557	0	0	-0.370265	0.0252557	-0.106888	0.200099	-0.455669	1.25184	0.689845	0.187675	0	0	-0.367762	-0.330529	0.0316695	0.983613	1.5708	0	0
1.27	-0.207256	1.36336	-1.33875	0.836093	0.369192	0.93356	-0.518653	0.131462	-0.150271	0	-0.26856	0	0	0.143792	-0.0525656	-0.348493	0.159115	-0.169577	0	0	-0.36573	0.0266298	-0.106346	0.196344	-0.452725	1.24801	0.683651	0.188131	0	0	-0.367879	-0.33182	0.0356291	0.979927	1.5708	0	0
1.28	-0.220512	1.3655	-1.32437	0.836247	0.357642	0.931799	-0.522711	0.132838	-0.149262	0	-0.266413	0	0	0.139409	-0.0497827	-0.337029	0.136601	-0.17593	0	0	-0.362744	0.0271955	-0.104842	0.192967	-0.450051	1.24463	0.678217	0.188295	0	0	-0.368428	-0.332577	0.0370642	0.977108	1.5708	0	0
1.29	-0.223743	1.36549	-1.32183	0.836325	0.345862	0.930461	-0.523599	0.131449	-0.146991	0	-0.265359	0	0	0.136201	-0.0487179	-0.33412	0.139053	-0.180917	0	0	-0.362224	0.0253761	-0.10231	0.189743	-0.447682	1.2419	0.673552	0.187592	0	0	-0.369482	-0.333912	0.0383814	0.974473	1.5708	0	0
1.3	-0.221818	1.36439	-1.32495	0.836418	0.33385	0.929338	-0.523599	0.128784	-0.144179	0	-0.264141	0	0	0.134572	-0.0488537	-0.334273	0.162009	-0.185682	0	0	-0.362336	0.0221606	-0.099296	0.18552	-0.445131	1.2383	0.668852	0.186228	0	0	-0.371155	-0.33705	0.0418336	0.972413	1.5708	0	0
1.31	-0.217117	1.36407	-1.3313	0.836588	0.321443	0.928331	-0.523599	0.124961	-0.141025	8.16922e-08	-0.261995	0	0	0.135389	-0.0499435	-0.338932	0.201396	-0.183347	0	0	-0.361118	0.0184716	-0.09519	0.178945	-0.443142	1.23167	0.664363	0.186437	0	0	-0.371787	-0.340962	0.0477552	0.969681	1.5708	0	0
1.32	-0.20475	1.36322	-1.34489	0.837007	0.308695	0.927615	-0.523599	0.119487	-0.139027	0.0052572	-0.262113	0	0	0.129146	-0.0460797	-0.333686	0.225541	-0.184036	0	0	-0.360826	0.0143333	-0.0934791	0.173904	-0.442457	1.22954	0.661606	0.186371	0	0	-0.373272	-0.341187	0.0468462	0.966672	1.5708	0	0
